<?xml version="1.0" standalone="no"?>
<!DOCTYPE svg PUBLIC "-//W3C//DTD SVG 20010904//EN"
 "http://www.w3.org/TR/2001/REC-SVG-20010904/DTD/svg10.dtd">
<svg version="1.0" xmlns="http://www.w3.org/2000/svg"
 width="300.000000pt" height="300.000000pt" viewBox="0 0 300.000000 300.000000"
 preserveAspectRatio="xMidYMid meet">
<metadata>
Created by potrace 1.10, written by Peter Selinger 2001-2011
</metadata>
<g transform="translate(0.000000,300.000000) scale(0.100000,-0.100000)"
fill="#000000" stroke="none">
<path d="M667 2758 c-26 -17 -47 -34 -47 -39 0 -5 18 4 41 20 22 17 46 32 52
34 7 2 10 7 7 10 -3 3 -27 -8 -53 -25z"/>
<path d="M2281 2784 c0 -12 99 -75 99 -64 0 4 -11 15 -25 24 -14 9 -36 23 -50
32 -14 9 -25 12 -24 8z"/>
<path d="M436 2564 c-64 -64 -116 -120 -116 -126 0 -5 27 20 61 56 33 36 89
92 125 125 36 34 61 61 56 61 -6 0 -62 -52 -126 -116z"/>
<path d="M2494 2619 c36 -33 92 -89 125 -125 34 -36 61 -60 61 -55 0 12 -229
241 -242 241 -5 0 20 -27 56 -61z"/>
<path d="M1348 2529 c3 -41 0 -64 -8 -69 -8 -5 -9 -10 -2 -14 6 -4 16 3 22 14
13 25 9 130 -5 130 -6 0 -9 -25 -7 -61z"/>
<path d="M1450 2535 c0 -30 0 -58 -1 -62 0 -4 4 -9 10 -11 7 -2 11 20 11 62 0
37 -4 66 -10 66 -5 0 -10 -25 -10 -55z"/>
<path d="M1203 2510 c30 -55 47 -74 47 -50 0 15 -61 110 -71 110 -4 0 6 -27
24 -60z"/>
<path d="M1666 2500 c-10 -34 -15 -64 -12 -68 8 -7 10 -5 29 58 9 30 13 58 8
63 -4 4 -16 -20 -25 -53z"/>
<path d="M1728 2534 c39 -27 21 -93 -26 -97 -12 0 -18 -5 -13 -10 26 -26 81
23 81 72 0 21 -30 51 -51 51 -8 0 -5 -6 9 -16z"/>
<path d="M978 2515 c-10 -11 35 -115 50 -115 10 0 12 4 5 13 -6 6 -16 30 -23
52 -13 43 -23 58 -32 50z"/>
<path d="M1164 2483 c-7 -39 -7 -43 1 -43 3 0 7 18 9 40 5 50 -1 52 -10 3z"/>
<path d="M1845 2444 c-28 -63 -28 -64 -17 -64 13 0 62 109 52 115 -5 3 -21
-19 -35 -51z"/>
<path d="M1911 2469 c3 -29 -2 -39 -19 -39 -14 0 -17 -7 -14 -40 5 -49 22 -53
22 -6 0 21 6 36 15 40 17 6 20 42 4 51 -6 4 -10 1 -8 -6z"/>
<path d="M840 2450 c0 -14 83 -89 99 -90 8 0 -8 22 -35 50 -48 49 -64 59 -64
40z"/>
<path d="M2020 2387 c-31 -16 -40 -76 -15 -101 18 -17 60 -22 69 -7 4 5 -3 7
-14 4 -47 -12 -70 62 -28 91 26 18 58 5 58 -24 0 -11 5 -20 10 -20 25 0 6 41
-27 59 -26 13 -22 13 -53 -2z"/>
<path d="M242 2333 c-17 -26 -28 -50 -25 -53 3 -3 8 0 10 7 2 6 17 30 34 52
16 23 25 41 20 41 -5 0 -22 -21 -39 -47z"/>
<path d="M379 2372 c-1 -4 0 -15 1 -25 1 -15 -5 -18 -27 -17 -50 4 -55 1 -50
-22 5 -19 -1 -26 -26 -38 -40 -19 -44 -45 -19 -102 14 -32 29 -48 58 -61 42
-20 91 -76 101 -116 3 -14 -4 -86 -17 -161 -13 -74 -27 -157 -30 -185 l-6 -50
-18 38 c-19 42 -14 102 10 111 20 8 19 86 -1 86 -22 0 -38 -38 -30 -76 3 -19
2 -34 -4 -34 -20 0 -30 142 -12 163 10 13 10 24 1 51 -15 47 -29 54 -52 26
-23 -29 -23 -55 1 -72 12 -9 22 -31 26 -63 4 -28 9 -59 11 -70 4 -16 3 -17 -5
-5 -6 8 -11 31 -12 50 0 27 -2 30 -8 16 -6 -16 -9 -17 -16 -6 -5 9 -4 15 3 18
17 5 15 22 -3 22 -10 0 -15 -11 -15 -35 0 -19 5 -35 11 -35 6 0 32 -46 58
-102 l47 -103 -6 -125 c-7 -126 -9 -134 -13 -47 -5 81 -57 106 -57 27 0 -28 7
-46 24 -62 25 -25 43 -83 75 -243 29 -143 86 -318 132 -403 42 -79 145 -210
185 -237 41 -26 27 -2 -32 55 -30 30 -75 87 -99 125 -98 156 -129 274 -121
456 8 192 24 326 41 354 12 20 84 45 130 45 66 0 105 92 55 132 -13 11 -29 29
-34 41 -8 16 -28 24 -76 34 -35 7 -69 18 -74 23 -20 20 -46 11 -46 -15 0 -14
-9 -34 -20 -45 -24 -24 -25 -45 -5 -84 8 -15 15 -39 15 -52 0 -12 8 -27 17
-33 16 -8 16 -18 4 -118 -7 -59 -15 -152 -18 -205 -3 -54 -9 -95 -14 -93 -4 3
-15 30 -24 61 -15 51 -15 62 0 126 9 39 22 77 30 85 18 17 19 41 5 79 -10 26
-12 26 -28 10 -12 -12 -17 -34 -18 -79 -1 -108 -6 -128 -15 -62 -10 73 9 279
45 483 29 166 39 182 159 280 56 45 74 66 81 95 8 30 6 41 -6 53 -14 15 -14
18 5 37 l20 20 -26 21 c-35 28 -265 77 -268 58z m106 -32 c0 -8 -7 -13 -15
-11 -8 2 -27 6 -43 9 -48 8 -42 23 10 20 35 -2 48 -7 48 -18z m69 -7 c8 -8
-45 -32 -57 -26 -4 3 -3 11 4 19 12 15 41 19 53 7z m-65 -38 c2 -3 -5 -15 -16
-28 -28 -30 -43 -61 -43 -89 0 -18 -2 -20 -10 -8 -5 8 -10 37 -10 64 0 42 -2
47 -15 36 -9 -7 -15 -26 -14 -44 3 -42 -11 -115 -22 -122 -10 -6 -11 -2 -9 86
0 41 -5 76 -15 94 -19 36 -19 34 8 29 12 -2 33 0 47 5 22 9 80 -5 99 -23z
m145 10 c18 -14 17 -15 -12 -40 -17 -14 -33 -40 -37 -58 -9 -46 -26 -87 -36
-87 -5 0 -8 3 -7 8 1 4 -1 17 -6 30 -8 25 -26 30 -26 8 0 -8 -11 -28 -24 -43
l-24 -28 -11 28 c-15 38 -14 63 3 95 19 37 54 68 96 86 44 19 60 19 84 1z
m-302 -115 c2 -44 1 -80 -2 -80 -15 1 -42 32 -55 63 -21 51 -19 76 8 87 43 17
45 13 49 -70z m306 13 c2 -23 -5 -39 -31 -67 -19 -20 -43 -36 -53 -36 -16 0
-16 2 3 15 13 9 28 35 34 58 6 23 13 48 15 55 7 24 29 6 32 -25z m-173 -145
c0 -7 -8 -14 -17 -16 -10 -2 -18 2 -18 8 0 6 -7 18 -15 26 -27 27 -16 37 18
15 17 -11 32 -26 32 -33z m-171 -114 c3 -9 6 -25 5 -37 -1 -20 -2 -20 -9 3
l-8 25 -1 -24 c-1 -19 -4 -22 -12 -14 -13 13 -4 63 10 63 5 0 12 -7 15 -16z
m206 -221 c8 -2 23 -15 33 -28 17 -24 17 -25 -11 -39 -16 -8 -34 -22 -41 -30
-22 -26 -26 -19 -26 49 -1 55 1 65 15 59 8 -3 22 -8 30 -11z m113 -28 c4 -16
-49 -17 -62 -1 -11 13 -8 15 23 13 20 -2 37 -7 39 -12z m-167 -61 c-4 -13 -10
-24 -15 -24 -15 0 -21 42 -9 63 10 19 11 19 20 3 5 -10 7 -28 4 -42z m197 22
c24 -18 22 -30 -13 -69 -20 -24 -42 -36 -67 -40 -21 -3 -48 -9 -60 -13 -18 -5
-25 -1 -33 21 -9 24 -7 32 11 51 26 28 96 64 124 64 11 0 28 -7 38 -14z m37
-51 c0 -9 -30 -65 -34 -65 -3 0 -13 -3 -23 -7 -14 -5 -11 1 10 26 15 18 27 37
27 42 0 5 5 9 10 9 6 0 10 -2 10 -5z m-350 -198 c0 -5 -5 -5 -12 -1 -8 5 -9 2
-5 -9 3 -10 2 -17 -3 -17 -13 0 -24 46 -15 67 6 16 8 15 20 -7 8 -14 14 -29
15 -33z m89 6 c0 -21 -3 -32 -6 -25 -2 6 -9 10 -14 6 -11 -7 -11 -1 1 30 13
36 20 32 19 -11z m10 -393 c-1 -33 -1 -33 -15 15 -17 63 -17 77 1 45 8 -14 14
-41 14 -60z"/>
<path d="M2739 2339 c17 -22 32 -46 34 -52 2 -7 7 -10 10 -7 8 7 -52 100 -64
100 -5 0 4 -18 20 -41z"/>
<path d="M685 2360 c-3 -5 4 -10 16 -10 16 0 20 -5 16 -20 -3 -12 -1 -20 6
-19 38 5 52 -26 23 -50 -11 -10 -20 -3 -47 34 -28 39 -49 56 -49 40 0 -12 65
-95 75 -95 19 0 55 40 55 61 0 12 -8 23 -20 26 -10 3 -22 14 -25 24 -7 20 -40
26 -50 9z"/>
<path d="M2182 2264 c-6 -10 -5 -30 1 -51 9 -27 8 -36 -3 -43 -8 -5 -11 -12
-7 -16 3 -4 14 -1 22 6 13 11 15 24 10 62 -6 39 -4 48 8 48 18 0 29 -24 21
-45 -4 -8 -1 -15 5 -15 15 0 14 43 -1 58 -17 17 -45 15 -56 -4z"/>
<path d="M2130 2211 c0 -10 6 -23 13 -29 9 -8 12 -3 12 19 0 17 -5 29 -12 29
-7 0 -13 -8 -13 -19z"/>
<path d="M2311 2151 c-10 -7 -14 -24 -12 -55 1 -34 -2 -46 -12 -46 -19 0 -27
22 -20 51 4 15 3 20 -5 15 -16 -9 -15 -49 0 -64 15 -15 45 -16 54 -1 4 7 7 28
8 48 1 43 20 57 24 19 2 -16 8 -28 13 -28 16 0 10 36 -9 53 -21 20 -22 20 -41
8z"/>
<path d="M2875 2095 c21 -60 48 -125 52 -122 5 5 -34 107 -48 127 -9 12 -10
11 -4 -5z"/>
<path d="M2370 1990 c-11 -11 -20 -31 -20 -45 0 -29 32 -65 58 -65 12 1 9 5
-10 16 -21 11 -28 22 -28 43 0 34 18 51 58 54 38 3 31 17 -9 17 -16 0 -38 -9
-49 -20z"/>
<path d="M2457 1953 c-6 -32 -3 -38 12 -28 13 8 15 55 2 55 -5 0 -11 -12 -14
-27z"/>
<path d="M818 1436 c2 -281 -1 -479 -7 -501 l-9 -35 278 0 c249 0 285 2 342
20 118 36 187 121 188 228 0 127 -84 214 -224 231 l-61 7 45 13 c168 45 240
118 240 242 0 71 -27 135 -77 178 -76 68 -108 74 -433 79 l-285 4 3 -466z
m493 423 c97 -25 149 -99 149 -211 0 -127 -31 -163 -223 -258 -102 -50 -137
-73 -154 -99 -13 -19 -23 -41 -23 -50 0 -10 8 -3 21 16 30 46 109 83 180 83
69 0 104 -12 143 -48 80 -75 72 -201 -17 -279 -66 -58 -198 -93 -351 -93 -76
0 -78 1 -72 23 3 12 6 227 6 477 l0 455 152 -3 c84 -2 169 -7 189 -13z m-393
-461 l-3 -453 -25 0 -25 0 -3 453 -2 452 30 0 30 0 -2 -452z m599 380 c55 -58
67 -146 31 -218 -22 -42 -72 -89 -83 -78 -3 3 4 25 15 49 27 60 27 177 0 238
-11 24 -20 45 -20 47 0 9 36 -15 57 -38z m-11 -490 c104 -92 80 -243 -48 -309
-58 -29 -64 -23 -24 26 74 90 85 165 38 259 -34 65 -22 73 34 24z"/>
<path d="M1528 1888 c8 -8 55 -15 120 -19 93 -4 114 -9 160 -34 94 -51 157
-142 187 -267 19 -83 19 -257 0 -333 -57 -217 -177 -315 -388 -315 -34 0 -69
-5 -77 -11 -11 -7 34 -9 150 -7 154 3 169 5 222 30 161 75 269 291 254 508
-13 198 -95 344 -229 410 -81 39 -143 50 -290 50 -97 0 -119 -3 -109 -12z
m481 -153 c160 -183 134 -576 -48 -714 l-34 -26 33 53 c57 93 82 182 87 317 6
150 -11 240 -66 348 -43 83 -33 92 28 22z"/>
<path d="M2492 1818 c-7 -7 -12 -25 -12 -40 0 -25 -9 -33 -33 -29 -5 1 -6 -3
-2 -9 3 -5 13 -10 21 -10 8 0 13 -4 9 -9 -7 -12 12 -24 25 -16 8 5 8 11 0 20
-6 7 -8 19 -6 26 2 8 7 26 10 42 7 28 31 37 39 15 2 -7 0 -21 -5 -31 -5 -10
-7 -21 -5 -24 3 -2 10 5 17 16 22 41 -26 81 -58 49z"/>
<path d="M555 1423 c-81 -57 -87 -64 -82 -100 3 -18 1 -35 -4 -38 -5 -4 -9
-12 -9 -18 0 -7 7 -4 14 6 12 15 18 16 35 8 30 -17 67 5 91 54 19 40 28 126
13 124 -5 -1 -30 -17 -58 -36z m48 -25 c-10 -55 -21 -76 -47 -94 -14 -9 -33
-13 -42 -10 -15 6 -15 8 1 26 10 11 15 23 11 28 -4 4 -14 -2 -22 -12 -15 -21
-30 -16 -21 8 5 14 103 84 119 85 4 1 5 -14 1 -31z"/>
<path d="M2414 1233 c-24 -47 -29 -70 -29 -128 0 -38 7 -91 16 -116 l16 -46
-39 -69 -40 -69 6 54 c3 34 11 58 21 63 17 10 21 58 5 58 -5 0 -10 -4 -10 -9
0 -5 -7 -8 -16 -7 -15 1 -17 -12 -18 -96 l0 -98 -23 16 c-28 18 -37 14 -69
-37 -14 -22 -32 -39 -43 -39 -36 0 -69 -68 -41 -85 6 -3 7 -16 4 -29 -4 -16 3
-32 20 -53 l26 -31 -59 -54 c-33 -29 -74 -62 -93 -72 l-33 -20 31 35 c29 34
30 39 28 115 -1 43 -3 83 -3 87 -1 5 -11 7 -22 5 -53 -8 -85 -109 -55 -169 29
-59 16 -82 -74 -123 -79 -36 -221 -81 -292 -92 -21 -4 -38 -11 -38 -17 0 -24
204 32 329 90 104 49 174 95 242 159 40 39 58 51 62 41 3 -8 26 -22 52 -30 46
-16 47 -16 69 8 13 14 30 25 37 25 23 0 62 48 55 66 -4 9 -1 32 6 51 12 32 11
36 -10 53 -13 11 -22 29 -22 47 0 38 -26 74 -47 66 -11 -4 -14 -2 -11 8 6 20
106 69 140 69 31 0 33 3 17 32 -11 20 -11 20 -32 0 -21 -18 -79 -52 -92 -52
-3 0 -5 4 -5 9 0 15 105 71 132 71 14 0 31 6 37 14 7 8 25 18 41 21 20 4 27
11 23 21 -7 20 -26 18 -46 -6 -9 -11 -22 -20 -29 -20 -6 0 -8 3 -5 6 3 4 2 15
-4 26 -10 19 -12 19 -29 3 -11 -10 -18 -27 -17 -38 1 -11 -5 -22 -13 -25 -13
-5 -13 -3 -1 11 7 10 10 17 7 17 -4 0 -19 -13 -33 -30 -13 -16 -29 -30 -34
-30 -10 0 26 64 47 80 7 7 14 22 14 34 0 12 3 16 8 10 4 -7 32 -9 73 -6 63 4
67 6 65 28 -1 30 -19 31 -47 3 -15 -15 -23 -18 -29 -9 -4 6 -9 11 -11 10 -2
-1 -12 2 -22 6 -26 10 -4 31 47 45 22 6 47 13 53 15 13 3 7 34 -7 34 -4 0 -17
-9 -30 -20 -13 -11 -28 -20 -34 -20 -6 1 9 19 34 40 43 38 44 40 25 54 -24 17
-35 12 -35 -17 -1 -12 -16 -40 -35 -61 -31 -35 -35 -37 -35 -17 0 14 7 25 20
28 22 6 24 11 11 31 -6 11 -9 11 -17 0 -22 -30 -36 -67 -33 -89 5 -34 -39
-108 -52 -88 -12 19 -11 56 2 64 6 4 8 14 4 22 -6 18 18 60 48 85 18 14 19 19
8 32 -11 14 -11 16 3 16 16 0 21 11 10 23 -12 12 -55 -26 -53 -47 3 -23 -26
-86 -39 -86 -11 0 2 89 18 121 7 15 23 32 37 38 21 9 23 14 13 26 -19 23 -25
19 -56 -42z m-113 -464 c19 -9 19 -12 6 -27 -9 -9 -20 -33 -25 -52 l-9 -35
-18 37 c-17 35 -17 38 -1 62 19 30 20 30 47 15z m89 -28 c6 -17 9 -35 5 -41
-8 -12 -95 -53 -101 -47 -8 8 17 72 38 94 29 31 43 29 58 -6z m-138 -70 l16
-29 -50 -7 c-55 -8 -74 4 -57 36 8 15 24 22 64 28 6 0 17 -12 27 -28z m178
-36 c0 -33 -14 -39 -49 -20 -17 8 -39 15 -51 15 -11 0 -20 5 -20 10 0 6 8 10
18 10 9 0 28 6 42 14 32 17 60 3 60 -29z m-146 -36 c-3 -5 -12 -9 -19 -9 -8 0
-22 -11 -31 -25 -21 -32 -42 -32 -55 2 -12 32 -5 40 46 51 40 9 70 -1 59 -19z
m91 -1 c47 -23 52 -33 32 -59 -25 -32 -45 -30 -57 6 -6 18 -18 39 -26 45 -18
16 -18 2 1 -30 34 -59 11 -96 -48 -76 -20 7 -40 15 -43 19 -11 11 17 66 36 72
9 3 25 14 35 25 22 24 15 24 70 -2z m-318 -87 c2 -69 0 -81 -19 -97 -23 -21
-23 -26 -2 61 4 15 2 25 -5 25 -6 0 -11 -9 -11 -19 0 -11 -4 -23 -10 -26 -19
-12 -11 77 11 112 12 19 24 31 28 28 3 -4 7 -42 8 -84z"/>
<path d="M75 1010 c12 -40 47 -121 51 -117 4 4 -45 129 -53 137 -3 3 -2 -6 2
-20z"/>
<path d="M224 695 c9 -14 23 -36 32 -50 9 -14 20 -25 24 -25 11 0 -52 99 -64
99 -4 1 -1 -10 8 -24z"/>
<path d="M2743 669 c-17 -27 -28 -49 -23 -49 4 0 15 11 24 25 9 14 23 36 32
50 9 14 12 25 8 24 -5 0 -23 -22 -41 -50z"/>
<path d="M320 562 c0 -13 229 -242 241 -242 5 0 -19 27 -55 61 -36 33 -92 89
-125 125 -34 36 -61 61 -61 56z"/>
<path d="M2554 444 c-66 -68 -117 -124 -113 -124 11 0 239 230 239 241 0 12
10 21 -126 -117z"/>
<path d="M620 281 c0 -12 93 -72 100 -64 3 3 0 8 -7 10 -6 2 -30 17 -52 34
-23 16 -41 25 -41 20z"/>
<path d="M2328 256 c-26 -17 -47 -35 -47 -39 -1 -9 40 14 80 43 41 31 17 28
-33 -4z"/>
</g>
</svg>
