<?xml version="1.0" standalone="no"?>
<!DOCTYPE svg PUBLIC "-//W3C//DTD SVG 20010904//EN"
 "http://www.w3.org/TR/2001/REC-SVG-20010904/DTD/svg10.dtd">
<svg version="1.0" xmlns="http://www.w3.org/2000/svg"
 width="500.000000pt" height="500.000000pt" viewBox="0 0 500.000000 500.000000"
 preserveAspectRatio="xMidYMid meet">
<metadata>
Created by potrace 1.16, written by Peter Selinger 2001-2019
</metadata>
<g transform="translate(0.000000,500.000000) scale(0.100000,-0.100000)"
fill="#000000" stroke="none">
<path d="M1503 3392 c5 -2 -14 -17 -42 -33 -57 -33 -101 -90 -102 -134 -1 -51
-17 2 -18 59 -1 40 -3 46 -15 37 -7 -6 -16 -37 -19 -69 -6 -68 -28 -128 -35
-98 -3 14 -6 15 -12 6 -6 -9 -13 -9 -32 4 -28 18 -44 48 -53 99 -6 28 -3 37
12 46 10 6 13 11 7 11 -22 0 -35 -28 -29 -63 10 -51 41 -96 78 -112 43 -18
116 -112 103 -133 -3 -4 -1 -14 4 -22 7 -12 25 2 79 61 38 41 85 86 105 100
35 23 66 72 66 102 0 9 -7 23 -16 32 -15 15 -15 18 6 37 l23 22 -29 23 c-16
12 -37 23 -46 23 -9 0 -22 2 -30 3 -7 2 -9 2 -5 -1z m73 -28 l25 -17 -36 -32
c-19 -18 -35 -41 -35 -51 1 -14 4 -11 13 9 12 29 12 29 31 9 25 -29 13 -74
-30 -112 -45 -39 -59 -38 -34 3 11 17 20 41 19 52 -1 13 -4 9 -10 -11 -5 -17
-16 -37 -24 -44 -12 -10 -15 -9 -15 8 0 11 -6 25 -14 31 -12 10 -18 7 -30 -17
-8 -15 -22 -34 -30 -41 -13 -11 -17 -9 -26 14 -28 73 8 147 93 190 60 29 70
30 103 9z"/>
<path d="M1768 2873 c9 -63 9 -903 0 -966 l-8 -48 318 3 317 3 55 26 c76 36
119 75 146 134 41 88 29 182 -33 255 -37 43 -120 90 -160 90 -55 0 -51 13 11
35 127 45 190 113 203 222 13 111 -44 210 -152 263 -50 25 -53 25 -377 28
l-328 3 8 -48z m562 1 c57 -26 106 -81 121 -136 6 -24 9 -74 6 -111 -7 -110
-32 -137 -202 -222 -84 -42 -155 -86 -177 -108 -50 -49 -49 -68 2 -24 48 41
98 57 174 57 149 0 246 -137 187 -265 -51 -113 -176 -171 -393 -182 l-118 -6
0 512 0 513 178 -4 c152 -3 183 -6 222 -24z"/>
<path d="M2544 2911 c4 -6 40 -11 85 -11 266 0 412 -179 413 -505 1 -239 -77
-402 -228 -476 -58 -29 -78 -33 -170 -37 -57 -3 -107 -9 -110 -14 -4 -7 55 -9
162 -6 166 3 170 4 237 35 165 78 267 269 267 498 0 230 -93 406 -258 487 -66
33 -68 33 -235 36 -120 3 -167 1 -163 -7z"/>
<path d="M1377 2773 c-4 -3 -7 -17 -7 -31 0 -14 -8 -31 -17 -38 -16 -12 -16
-12 5 -7 18 4 22 1 22 -18 0 -33 -11 -69 -20 -69 -4 0 -12 17 -18 38 -5 20
-10 29 -11 19 -1 -10 6 -34 14 -54 8 -19 15 -44 15 -54 0 -9 8 -25 17 -35 12
-12 17 -33 17 -73 -1 -31 1 -42 3 -25 2 18 13 40 24 50 23 21 84 44 117 44 34
0 79 30 92 60 13 31 0 73 -25 88 -9 5 -22 19 -28 32 -10 19 -26 27 -72 36 -33
7 -62 10 -64 8 -2 -2 1 -4 7 -4 7 0 12 -5 12 -12 0 -6 7 -19 16 -29 14 -16 14
-18 -8 -29 -13 -7 -35 -24 -50 -38 -16 -14 -28 -24 -28 -21 0 2 -3 39 -5 82
-5 70 3 95 20 67 3 -5 11 -10 18 -10 6 0 2 7 -9 15 -22 16 -28 18 -37 8z m181
-59 c7 -2 12 -9 10 -16 -1 -7 12 -27 30 -45 18 -17 32 -39 32 -48 0 -22 -54
-75 -77 -75 -16 1 -17 1 -1 10 20 12 58 72 58 91 0 8 -8 -1 -17 -19 -18 -37
-41 -52 -93 -62 -19 -4 -47 -11 -61 -14 -23 -7 -28 -4 -37 22 -8 23 -7 35 4
50 18 26 78 63 118 72 l31 8 -30 1 c-30 1 -55 16 -55 33 0 8 54 3 88 -8z"/>
<path d="M1321 2441 c-8 -17 -10 -47 -6 -72 4 -28 0 -61 -9 -89 l-14 -45 -3
65 c-2 58 -3 60 -7 20 -3 -37 -6 -41 -13 -25 -11 23 -8 10 15 -85 8 -30 20
-84 27 -120 8 -39 15 -56 17 -42 3 22 4 23 17 5 8 -10 14 -38 14 -63 0 -36 -2
-41 -10 -25 -7 15 -7 11 -3 -14 10 -57 62 -207 83 -242 28 -45 26 -34 -3 34
-38 86 -56 192 -56 334 0 121 2 131 25 165 18 26 30 36 43 32 14 -5 14 -4 2 4
-12 9 -12 14 5 31 10 12 16 24 12 27 -3 3 -12 -3 -19 -15 -16 -26 -28 -27 -28
-3 0 10 10 27 23 38 23 21 103 74 111 74 3 0 7 -12 9 -27 3 -23 4 -21 6 10 0
20 -1 37 -3 37 -8 0 -112 -69 -135 -90 -17 -16 -22 -29 -18 -48 3 -15 -1 -38
-8 -52 -14 -25 -14 -25 -16 15 -2 37 -2 36 -9 -15 -5 -30 -8 -89 -9 -129 -1
-43 -5 -71 -10 -65 -16 17 -41 107 -41 146 0 51 19 129 36 149 8 8 14 20 14
25 0 5 -5 2 -10 -6 -8 -12 -10 -12 -11 5 l0 20 -9 -20 c-8 -18 -9 -17 -9 8 -1
16 4 38 11 50 l12 22 7 -25 8 -25 -2 24 c-3 35 -22 36 -36 2z"/>
<path d="M3637 2173 c-4 -3 -7 -14 -7 -23 0 -10 -6 -23 -14 -29 -11 -10 -17
-8 -25 6 -8 14 -12 15 -22 6 -14 -14 -18 -28 -25 -83 -4 -29 -35 -100 -51
-120 -2 -2 -9 2 -14 10 -8 12 -10 10 -5 -9 5 -24 -69 -189 -81 -178 -3 3 -2
33 2 66 5 42 11 61 21 61 15 0 31 47 19 58 -4 4 -10 2 -12 -4 -2 -7 -12 -10
-21 -7 -15 4 -17 -7 -17 -101 0 -59 -2 -106 -5 -106 -3 0 -16 7 -28 16 -27 19
-42 10 -66 -41 -12 -25 -26 -37 -49 -43 -18 -5 -38 -19 -47 -34 -13 -24 -13
-29 4 -47 10 -11 15 -25 11 -31 -10 -17 15 -68 37 -76 10 -3 24 -16 29 -28 6
-12 27 -27 49 -34 54 -16 59 -16 86 14 25 26 31 40 14 29 -5 -3 -10 1 -10 10
0 9 -9 33 -20 55 -24 48 -24 47 -2 53 13 4 11 5 -5 6 -31 1 -29 17 3 25 15 4
24 9 22 12 -3 2 -18 0 -33 -6 -36 -14 -39 -10 -26 35 19 71 78 108 101 66 16
-31 12 -59 -11 -71 -11 -7 -18 -14 -15 -17 3 -3 12 -1 19 6 11 9 20 7 38 -8
21 -17 22 -21 11 -46 -13 -27 -17 -28 -67 -10 -11 4 -2 -4 19 -17 22 -12 41
-28 43 -33 2 -6 -8 -22 -22 -38 -14 -15 -23 -27 -19 -27 4 0 18 12 32 27 19
20 22 31 14 43 -7 11 -6 22 4 35 19 26 17 49 -6 70 -11 10 -20 28 -20 41 0 40
-21 74 -46 74 -21 0 -23 2 -12 25 6 14 16 25 22 25 6 0 31 10 56 22 25 11 55
20 67 19 11 -1 24 3 28 8 3 6 1 11 -4 11 -6 0 -11 8 -11 17 0 14 -3 14 -22 -4
-21 -19 -100 -63 -112 -63 -3 0 -3 7 0 15 9 21 115 79 143 77 14 -1 33 7 43
18 10 11 27 20 38 20 24 0 31 12 20 30 -8 12 -14 10 -35 -13 -15 -15 -31 -25
-36 -22 -5 4 -7 10 -4 15 3 5 1 11 -5 15 -5 3 -10 13 -10 21 0 10 13 14 49 14
45 0 49 2 49 25 0 30 -14 32 -44 4 -18 -17 -26 -19 -43 -10 -12 7 -21 16 -21
22 0 6 -4 7 -10 4 -5 -3 -7 0 -4 8 6 16 78 47 107 47 19 0 21 8 7 30 -8 13
-14 11 -35 -12 -14 -16 -33 -28 -42 -28 -13 0 -10 7 12 30 16 17 34 30 41 30
20 0 27 19 14 35 -14 16 -23 19 -33 8z"/>
</g>
</svg>
