<svg version="1.1" id="Layer_1" xmlns="http://www.w3.org/2000/svg" xmlns:xlink="http://www.w3.org/1999/xlink" x="0px" y="0px"
	 width="100%" viewBox="0 0 496 496" enable-background="new 0 0 496 496" xml:space="preserve">
<path fill="#000000" opacity="1.000000" stroke="none" 
	d="
M105.903763,210.954910 
	C110.639565,214.880325 108.686928,219.952988 107.919617,224.144836 
	C106.880875,229.819565 108.542023,234.540726 110.342133,240.343582 
	C113.135689,236.179138 113.929390,232.316162 113.454422,228.202820 
	C113.129723,225.390884 113.291733,222.814362 115.741936,221.030167 
	C117.002922,220.111938 118.286705,220.590134 119.241730,221.793686 
	C121.406097,224.521301 121.547791,228.052719 119.483551,230.130569 
	C109.727028,239.951462 112.732178,249.497131 119.332558,259.204926 
	C121.453667,262.324646 123.631294,265.405945 126.463020,269.484070 
	C127.130455,262.853119 128.382187,257.525391 126.268417,252.186249 
	C126.146088,251.877258 125.994743,251.554520 125.979439,251.232346 
	C125.840935,248.318253 124.698624,245.242050 127.111687,242.717743 
	C127.402336,242.413681 128.631638,242.440460 128.878723,242.750290 
	C130.961349,245.361511 131.715683,248.623199 130.847610,251.620056 
	C129.472031,256.369049 129.580597,261.132233 129.253937,265.939758 
	C128.884384,271.379272 130.182281,276.043488 133.468674,280.352325 
	C135.754105,283.348785 137.709396,286.597046 140.586243,290.887146 
	C139.897522,283.085083 138.123825,276.884460 137.450439,270.499176 
	C134.708069,244.495865 139.624481,220.140823 152.247223,197.291855 
	C153.829788,194.427200 155.166260,192.146576 158.991913,195.247604 
	C161.157394,197.002899 164.164566,196.281204 165.789505,193.384232 
	C167.667877,190.035446 170.668289,189.403625 173.959518,190.340057 
	C178.720276,191.694656 183.681305,192.162766 188.481155,193.181824 
	C193.210663,194.185959 198.656555,192.360397 203.686432,191.295883 
	C215.393982,188.818115 226.958633,185.688889 239.014145,185.069031 
	C243.219528,184.852814 247.357635,184.942108 251.445465,185.683441 
	C264.624695,188.073517 278.434509,187.312683 290.825775,193.728119 
	C294.144012,195.446121 297.670471,193.629410 301.024200,193.092758 
	C302.842926,192.801743 304.467926,190.798355 303.865173,188.924866 
	C301.721741,182.261932 307.925964,180.111771 310.260742,175.652298 
	C316.025787,179.233231 322.179504,179.323730 328.329712,178.900970 
	C332.453583,178.617493 336.023621,179.777191 338.904999,182.465225 
	C343.952667,187.174149 346.988770,193.250427 350.192413,199.759491 
	C343.535309,201.678253 345.144196,206.040054 347.396790,209.457382 
	C351.428406,215.573624 350.562347,222.115524 350.047424,228.611038 
	C349.756195,232.285309 349.930023,235.496674 352.396118,238.322128 
	C358.174622,236.032104 359.200928,234.161102 357.774841,228.675034 
	C357.033508,225.823242 356.366791,222.976273 358.348969,220.116440 
	C365.178528,236.920853 365.522736,254.559189 364.970886,272.432861 
	C372.415253,264.348816 376.910461,254.578125 380.738434,244.763855 
	C383.429138,237.865143 378.568787,231.727829 374.430695,226.302109 
	C372.593231,223.892868 370.796539,221.736084 370.210480,218.586929 
	C369.591217,215.259460 370.466309,212.636963 372.750610,210.442307 
	C373.956909,209.283340 375.639374,209.427475 376.910614,210.416672 
	C379.505554,212.435944 380.594299,215.462509 379.915894,218.432007 
	C379.015656,222.372375 379.663330,226.051743 380.448395,229.781219 
	C381.026886,232.529236 381.873657,235.232315 384.194885,238.202026 
	C386.571869,229.820007 390.200531,222.465118 387.365265,213.737503 
	C385.956818,209.401886 386.135529,204.521698 387.345245,199.918930 
	C387.812714,198.140244 388.333923,196.089233 390.577240,195.984192 
	C393.026703,195.869476 393.782166,197.972214 394.546844,199.850540 
	C395.593292,202.420929 395.842529,205.189102 394.966431,207.698654 
	C391.022675,218.995117 389.855225,231.073318 385.188599,242.147003 
	C383.848694,245.326477 382.258148,248.400299 381.141632,251.853027 
	C386.541718,248.075867 393.068176,245.751541 395.589539,238.655563 
	C397.377869,233.622543 401.364441,230.580017 406.331116,228.960846 
	C408.019165,228.410538 410.192230,228.107727 411.381378,229.922928 
	C412.797791,232.084976 410.566925,233.094543 409.463928,234.424377 
	C401.984070,243.442688 390.619812,247.313614 382.145081,255.083603 
	C377.727448,259.133881 364.713531,276.733459 363.559662,282.061554 
	C367.301819,281.857117 368.933197,279.513275 370.518311,276.672058 
	C373.649475,271.059631 378.315002,267.295258 384.777802,266.008606 
	C386.546021,265.656555 388.223053,265.741730 389.251373,267.324738 
	C390.390717,269.078613 389.213196,270.600800 388.061157,271.754303 
	C383.546021,276.275146 378.604187,280.268738 372.219360,281.764648 
	C364.713440,283.523193 360.602905,288.090881 359.357788,295.675079 
	C358.376404,301.653015 362.091766,305.699585 367.868408,304.490021 
	C370.887360,303.857880 370.887360,303.857880 374.339539,306.096771 
	C373.116974,309.875305 369.611206,310.370819 366.553711,311.257446 
	C363.329742,312.192291 360.162628,313.052185 357.885651,316.216949 
	C359.268341,319.110779 360.992950,322.082703 361.677429,325.580536 
	C362.419067,329.370392 361.189301,331.645294 357.932922,333.294647 
	C352.671936,335.959290 346.879364,336.947113 341.281464,338.445862 
	C335.922852,339.880585 331.483307,342.276825 327.955414,346.584167 
	C326.109161,348.838348 324.149170,350.706848 321.007904,347.562378 
	C318.866974,345.419312 315.733978,346.181976 312.915924,347.007568 
	C302.068176,350.185699 291.667236,354.753632 280.460236,356.872833 
	C274.718689,357.958527 268.856140,357.829010 263.193207,359.206696 
	C256.223938,360.902191 252.772247,366.732056 254.493790,373.736176 
	C254.763123,374.831940 255.613754,375.837036 254.750076,377.593140 
	C247.290054,379.020599 239.544861,378.402069 231.928375,376.853546 
	C213.045547,373.014404 195.881546,365.425873 180.617462,353.421783 
	C171.081772,345.922607 161.858505,337.929443 151.171921,331.982880 
	C147.277557,329.815887 145.587494,326.883087 147.858978,322.509491 
	C148.383591,321.499359 149.043900,319.997772 147.942078,319.264801 
	C144.245483,316.805725 144.605331,313.705536 145.720001,310.072418 
	C146.481369,307.590851 144.851440,305.762024 143.115433,303.999207 
	C138.450455,299.262085 132.460190,297.536133 126.300682,295.968811 
	C123.047577,295.141052 119.412422,294.762817 116.564774,290.267334 
	C127.346703,289.071014 134.561539,294.365051 142.175354,299.658997 
	C137.184158,290.047943 132.604523,280.545258 122.726463,275.141052 
	C118.671860,272.922821 113.700874,272.602997 110.309990,269.013855 
	C108.578285,267.180908 104.839966,265.529572 106.791824,262.875519 
	C108.891830,260.020020 112.403328,261.997620 114.787224,263.790649 
	C117.123474,265.547882 119.751076,267.138031 120.814903,270.256592 
	C121.435463,272.075745 123.080719,272.922974 125.356506,273.020905 
	C119.235611,262.108551 112.209106,252.328415 101.018120,246.552628 
	C97.140366,244.551270 94.502892,241.459717 91.586754,238.527359 
	C90.765427,237.701447 89.829147,236.766083 90.655128,235.492081 
	C91.542648,234.123138 92.997650,234.284134 94.267929,234.695953 
	C98.108131,235.940933 100.934189,238.326874 102.372887,242.223480 
	C103.722672,245.879257 106.663124,247.729904 110.478233,249.686890 
	C110.478592,245.945786 108.800255,243.536896 108.113029,240.874146 
	C106.207626,233.491455 104.071396,226.166733 102.264656,218.760971 
	C101.483383,215.558502 101.780502,212.419388 105.903763,210.954910 
M212.787140,272.753571 
	C212.538589,272.512451 212.290039,272.271332 211.733276,271.422272 
	C210.585083,269.264923 208.712326,267.948700 206.594513,266.861450 
	C203.635315,265.342224 200.314468,264.047638 198.735901,260.951660 
	C196.922318,257.394714 193.912094,255.561386 190.558960,254.051285 
	C186.013885,252.004425 181.511902,249.782135 176.801025,248.203171 
	C170.823792,246.199722 164.666458,247.888229 158.598663,248.270782 
	C157.075806,248.366806 156.059616,249.703339 155.125671,250.930359 
	C153.513687,253.048172 151.752594,255.053116 150.156082,257.181885 
	C148.861526,258.908112 146.122894,260.321899 148.222076,263.068817 
	C149.996490,265.390778 152.065613,267.310425 155.428116,265.951904 
	C157.898590,264.953827 160.313797,265.419678 162.699402,266.422211 
	C164.542847,267.196869 166.476883,268.074890 168.491592,267.440216 
	C173.027908,266.011200 177.008957,267.538452 180.944214,269.483276 
	C186.462555,272.210510 191.869095,275.190216 197.504044,277.647858 
	C203.241989,280.150452 208.722107,284.417480 215.245316,283.627563 
	C225.462677,282.390320 235.840149,282.043762 245.855972,279.424988 
	C269.876984,273.144318 294.523560,270.206970 318.846466,265.546906 
	C326.501617,264.080261 334.369171,263.632782 341.787354,261.007996 
	C343.605927,260.364563 345.973083,259.860504 345.266418,257.061432 
	C344.594940,254.401596 342.419952,254.064026 340.104645,254.342255 
	C338.957336,254.480133 337.830170,254.802536 336.700806,255.070679 
	C327.961060,257.145813 319.098358,258.361633 310.179626,259.442261 
	C298.488007,260.858856 286.662079,262.099945 275.297882,264.999634 
	C265.674988,267.455109 256.199493,270.739014 246.452408,272.756348 
	C235.438812,275.035767 224.288055,277.602997 212.787140,272.753571 
M301.831604,304.869507 
	C309.604034,304.113220 317.401611,303.550995 325.142090,302.548187 
	C333.542755,301.459839 342.013275,300.549438 350.037048,297.549408 
	C351.871368,296.863586 354.022644,296.358246 354.409027,293.946960 
	C355.381653,287.876984 349.735046,282.768494 343.722809,284.138794 
	C340.977814,284.764435 338.152374,285.041229 335.412659,285.685638 
	C295.726959,295.019806 255.475937,301.860168 216.202347,312.041382 
	C216.004410,315.214233 217.826340,317.538422 216.898834,320.068207 
	C216.256241,321.820953 216.196442,324.676300 213.449570,324.089355 
	C210.928513,323.550659 212.030212,321.222382 212.301956,319.466675 
	C213.196320,313.688477 212.129044,311.553314 206.537216,309.748505 
	C199.312149,307.416443 192.897324,303.818176 186.716782,299.422913 
	C179.174805,294.059448 170.454498,291.130768 161.374756,289.450867 
	C157.543991,288.742157 154.603348,289.554352 155.190598,294.494720 
	C155.421265,296.435181 154.820175,298.068481 153.400665,299.462250 
	C150.731750,302.082794 151.803757,304.603241 153.836365,306.933197 
	C156.310776,309.769501 159.403717,311.847290 163.091125,312.529510 
	C169.471558,313.709930 175.872787,314.729889 182.024124,316.888367 
	C184.614120,317.797211 186.590851,317.357971 187.439163,314.084015 
	C185.151169,311.857330 182.173615,310.702301 179.281769,309.603668 
	C173.687454,307.478333 167.907425,305.835907 162.339859,303.648468 
	C159.157730,302.398254 156.117722,300.255219 157.763565,296.149475 
	C159.432404,291.986420 163.651764,291.013489 167.534332,293.579437 
	C174.739044,298.341034 181.488495,303.772003 189.611191,307.126373 
	C192.541702,308.336578 195.359344,310.529999 195.723602,314.604523 
	C194.063354,315.639801 190.930923,315.072449 191.351013,318.342377 
	C191.742401,321.388977 194.317307,321.686493 196.483063,322.293579 
	C198.713425,322.918793 201.035065,323.267578 203.339310,323.559631 
	C204.535187,323.711212 205.668045,323.848328 206.526016,324.743530 
	C209.391876,327.733765 213.012268,327.791412 216.692551,327.240448 
	C231.001602,325.098450 245.100433,321.898041 259.226654,318.811890 
	C266.898926,317.135773 273.492676,313.698639 279.720795,308.974609 
	C289.508026,301.550964 301.329437,300.079773 313.080048,298.693481 
	C313.453400,298.649384 313.884003,299.090302 314.748260,299.550018 
	C310.706512,303.390778 305.091888,302.380554 300.204407,305.089569 
	C294.224335,306.314087 288.012085,306.994324 282.875427,312.353760 
	C289.905701,310.816864 295.847870,308.866211 301.831604,304.869507 
M188.635666,352.460388 
	C183.387146,347.603210 178.377304,342.479156 172.471832,338.365753 
	C170.246674,336.815826 168.812195,334.626709 167.656784,332.133240 
	C165.176926,326.781555 160.292740,324.290771 155.126144,322.255798 
	C153.735275,321.707977 152.496109,321.847931 151.742203,323.348846 
	C151.100052,324.627258 150.841339,326.028198 151.985657,327.041870 
	C153.337601,328.239471 154.858490,329.295349 156.436493,330.180206 
	C162.839294,333.770538 168.830399,337.864136 174.405289,342.705414 
	C178.887299,346.597717 183.408493,350.627960 189.487106,353.470093 
	C196.125839,358.575714 203.528137,362.325043 211.079132,365.861542 
	C215.098557,367.744080 218.944916,368.265045 223.059189,366.329926 
	C226.071426,364.913177 229.162491,363.658539 232.247147,362.402191 
	C242.422653,358.257843 252.596451,353.958191 263.705872,353.138184 
	C275.605316,352.259857 287.380890,350.847961 298.741516,347.027313 
	C305.213196,344.850891 311.479584,341.792389 318.105164,340.405792 
	C329.370636,338.048035 340.210175,334.217316 351.403595,331.688477 
	C355.444855,330.775482 357.489929,328.579285 356.633728,324.192413 
	C355.580322,318.795166 353.072266,316.044403 348.862213,316.315918 
	C344.217590,316.615417 339.462524,316.636475 334.974731,317.701965 
	C304.081757,325.036407 272.822418,331.120575 243.393234,343.634186 
	C238.937881,345.528625 234.380386,347.249329 229.592377,347.905090 
	C225.075211,348.523682 220.372009,351.119507 215.933685,348.481232 
	C199.785294,338.882111 182.053421,331.963043 167.377441,319.876068 
	C163.423615,316.619751 158.602417,315.163818 153.932709,313.449371 
	C152.336243,312.863251 150.323181,312.356506 148.918152,314.628906 
	C150.274841,317.318024 153.227783,317.370361 155.503464,318.487061 
	C167.195374,324.224548 178.595383,330.326782 185.930969,341.776550 
	C186.321487,342.386108 187.310654,342.612091 188.000366,342.997742 
	C188.000366,342.997742 187.982697,342.975555 188.256897,343.586639 
	C189.390381,344.512329 190.537216,345.422211 191.654236,346.367371 
	C193.384186,347.831146 195.924850,349.225220 195.015121,351.820007 
	C193.931686,354.910217 191.063263,352.772003 188.635666,352.460388 
M232.548370,193.693237 
	C233.238235,193.487793 234.261139,193.854721 234.385757,192.641373 
	C229.955093,189.555008 225.501434,188.844101 220.399338,191.341324 
	C216.539154,193.230698 212.253647,193.979324 207.889862,194.492355 
	C201.887329,195.198059 195.972443,196.649216 189.971390,197.790253 
	C190.732269,200.787933 195.107330,202.455933 192.221893,205.573425 
	C190.047897,207.922272 187.030594,209.078445 183.505127,207.620819 
	C184.462036,202.786041 181.146317,201.657883 177.705994,201.414230 
	C169.487686,200.832153 163.268463,204.775345 157.675186,210.528595 
	C164.469345,215.230911 167.439987,215.112000 173.051849,210.460220 
	C174.967194,208.872543 177.033417,207.464981 179.618484,209.067429 
	C180.105652,213.017090 174.779266,212.709824 174.834412,215.922348 
	C185.792984,223.523788 196.581100,231.082947 209.993484,233.301987 
	C212.768051,233.761032 215.818329,233.575684 218.173996,235.239853 
	C220.452576,236.849533 224.525024,238.458542 222.912369,241.720490 
	C221.589081,244.397141 218.104156,242.279556 215.717697,241.342926 
	C209.298676,238.823563 202.930435,236.174774 196.542038,233.577347 
	C203.229889,238.033646 210.186768,241.887634 217.083923,245.845627 
	C220.779221,247.966202 224.537659,248.078461 228.642975,247.232330 
	C241.222519,244.639587 253.065170,239.494095 265.593018,236.760193 
	C283.013550,232.958572 300.923950,232.787842 318.433685,229.658295 
	C325.431213,228.407593 332.699524,228.426254 339.235138,224.970932 
	C343.065125,222.946045 343.993408,219.640976 343.887848,215.779282 
	C343.789307,212.175888 340.794067,211.777405 338.264954,211.183060 
	C322.669617,207.517914 307.805786,201.475311 292.054443,197.991455 
	C281.217651,195.594604 270.700867,191.070160 259.427185,189.851059 
	C253.433014,189.202850 247.653305,186.504227 240.986496,187.711777 
	C243.657013,190.450211 246.288651,191.375854 249.726776,190.938431 
	C255.037140,190.262833 260.301483,190.520355 265.474213,192.442383 
	C274.666443,195.857971 283.952209,199.024231 293.224579,202.220139 
	C295.421051,202.977188 297.050568,204.071579 297.647125,206.472351 
	C299.084503,212.257278 293.536499,222.036484 287.796478,222.988281 
	C280.268982,224.236526 272.682281,225.324707 265.077179,225.865784 
	C250.645523,226.892548 236.631363,224.339859 222.912262,219.949829 
	C215.790894,217.671051 208.287659,216.652084 201.445496,213.447266 
	C199.781906,212.668030 197.854263,212.009018 197.704178,209.853531 
	C197.543518,207.546600 199.994690,207.855743 201.169815,206.862579 
	C204.548447,204.007111 210.913528,204.744827 211.420013,198.283066 
	C211.462311,197.743393 213.523468,196.784683 214.437180,196.983490 
	C220.737717,198.354370 225.928253,194.069672 232.548370,193.693237 
M241.845886,301.101685 
	C263.737946,296.134796 285.627289,291.155914 307.523163,286.205811 
	C319.527588,283.491882 331.947723,283.276917 343.886993,280.102600 
	C352.844330,277.721100 352.709076,277.866089 350.876617,268.737274 
	C350.018372,264.461670 347.640045,263.480377 344.065125,264.695282 
	C338.034821,266.744598 331.794128,267.608246 325.556732,268.594818 
	C323.610321,268.902679 320.815979,268.915405 319.959290,270.143829 
	C316.757202,274.735443 311.539398,276.586243 307.642914,280.154755 
	C302.702118,284.679657 296.681946,286.097229 290.124329,286.102295 
	C283.306000,286.107544 276.477936,286.822784 269.697266,286.902374 
	C263.020905,286.980743 255.412186,291.089508 249.625854,283.945099 
	C248.884735,283.030060 247.414764,283.954987 246.292023,284.184326 
	C237.824585,285.914154 229.328140,287.625183 220.922165,289.501099 
	C213.193268,291.225952 207.037613,288.188660 201.055786,285.331421 
	C192.695023,281.337891 185.040512,275.786621 176.384857,272.301880 
	C168.028961,268.937836 159.386780,269.769348 150.946838,272.191803 
	C147.463623,273.191559 146.229401,276.161224 146.641418,279.721436 
	C147.069519,283.420654 149.754272,284.009979 152.778824,284.151123 
	C154.925339,284.251343 157.207794,283.979797 159.191391,284.616364 
	C171.952789,288.711823 185.091202,291.603943 195.989243,300.522278 
	C202.129684,305.547241 209.829590,307.649323 218.389236,307.018982 
	C226.410950,306.428253 233.355759,302.589264 241.845886,301.101685 
M287.080780,256.971619 
	C279.558044,256.027405 272.005432,255.267654 264.526093,254.055664 
	C261.144867,253.507751 256.589905,253.472549 254.987534,250.459000 
	C252.030807,244.898285 248.183105,246.254532 244.123001,247.725510 
	C230.015121,252.836929 217.147919,251.290222 204.344833,242.911987 
	C193.236725,235.642944 180.804443,230.588211 167.956879,226.872803 
	C165.866699,226.268341 163.607117,225.388504 161.111557,228.568970 
	C172.572617,230.643448 182.876740,233.838135 192.562317,239.058365 
	C204.432083,245.455795 215.756180,254.850082 216.564636,260.713684 
	C210.213928,256.925873 204.112793,253.735199 198.497528,249.843445 
	C187.175003,241.996216 175.289474,235.589417 161.650879,232.777908 
	C156.906952,231.799957 152.771286,232.798950 148.894119,235.488571 
	C146.578842,237.094727 144.407501,238.938614 146.096512,242.023300 
	C147.839600,245.206711 150.438766,243.402161 152.647247,242.517624 
	C163.536072,238.156357 174.069656,238.229141 184.058228,244.956680 
	C190.745636,249.460815 198.742371,251.554459 204.807388,257.424316 
	C209.010223,261.491943 216.753204,260.931976 219.530624,267.553558 
	C219.729752,268.028351 220.618042,268.423279 221.224243,268.486328 
	C228.802673,269.274170 236.409149,271.155823 243.993820,268.868011 
	C257.533325,264.784058 271.353302,261.877136 285.307312,259.908691 
	C300.458740,257.771332 315.488495,255.143066 330.458557,252.014618 
	C334.874908,251.091690 337.637604,249.155258 340.018005,245.249100 
	C342.327393,241.459503 343.271118,238.279099 341.910126,233.907837 
	C340.991089,230.956085 339.924072,230.170868 337.071228,230.633957 
	C330.846863,231.644272 324.603088,232.576767 318.337982,233.281387 
	C312.868195,233.896591 311.590973,235.006866 311.869507,240.441422 
	C312.033600,243.643738 311.675781,246.355164 308.518158,248.088943 
	C301.941193,251.700150 295.305023,255.137009 287.080780,256.971619 
M261.934937,198.396133 
	C258.165039,199.306305 255.499359,195.372147 252.544098,195.544098 
	C242.949585,196.102402 233.226578,196.596497 223.956665,199.471313 
	C217.083206,201.602905 211.102249,205.614304 205.176163,210.156097 
	C219.853455,214.017075 234.530762,217.878036 249.208069,221.739014 
	C242.830307,218.957718 236.113434,217.383743 229.555466,215.307861 
	C223.079025,213.257751 215.962845,213.065689 209.848618,209.409027 
	C210.956879,206.915253 213.356125,205.178513 214.107071,206.695160 
	C216.043335,210.605606 219.542374,209.488937 222.312561,210.272736 
	C238.446335,214.837753 254.523270,220.016891 271.693024,215.737183 
	C275.521484,214.782928 279.652710,215.166336 283.412659,213.654846 
	C284.869629,213.069153 286.004547,212.006927 286.229126,210.398804 
	C286.473358,208.650284 284.937439,208.247513 283.754395,207.727280 
	C276.752533,204.648102 269.734314,201.606018 261.934937,198.396133 
M176.148163,225.064377 
	C181.574875,226.408493 185.898224,230.510574 192.574722,231.796280 
	C181.568909,223.263992 169.852051,218.922897 157.778122,215.376205 
	C156.057159,214.870651 154.509064,215.439240 153.539932,217.784698 
	C160.044769,222.550461 168.059677,222.689865 176.148163,225.064377 
M282.489594,204.073517 
	C285.254028,206.379929 290.446930,206.602234 290.146210,211.528870 
	C289.853760,216.319977 285.270264,216.773209 281.806488,218.160950 
	C281.663910,218.218048 281.582947,218.428955 281.421997,218.633362 
	C290.229462,218.554245 293.294189,215.376144 293.655518,205.730087 
	C288.467072,204.013000 283.183441,202.264420 277.899811,200.515839 
	C277.828613,200.716217 277.757416,200.916580 277.686218,201.116959 
	C279.088257,201.980789 280.490295,202.844635 282.489594,204.073517 
M280.910339,278.224426 
	C285.548553,277.998077 290.185760,277.748596 294.825256,277.552887 
	C298.325714,277.405243 300.886261,275.805359 303.672699,272.088959 
	C291.516602,274.529602 280.557312,276.729950 269.598022,278.930298 
	C269.641998,279.176758 269.685974,279.423218 269.729919,279.669678 
	C273.160980,279.220032 276.592041,278.770416 280.910339,278.224426 
M164.502594,296.455200 
	C163.120773,295.712036 161.240067,295.925720 161.629089,297.450897 
	C162.474945,300.766937 165.550735,300.488007 169.124130,300.589020 
	C167.322800,298.975830 166.140366,297.916870 164.502594,296.455200 
z"/>
<path fill="#000000" opacity="1.000000" stroke="none" 
	d="
M145.824188,150.737366 
	C141.840073,142.618423 135.931808,135.782700 130.819855,128.422501 
	C128.664062,125.318626 129.649460,123.767563 132.472244,122.145241 
	C134.870071,120.767166 136.113449,121.874031 137.388535,123.702316 
	C141.473312,129.559341 145.611038,135.379425 149.768997,141.271393 
	C155.213089,140.330719 157.921555,134.611313 163.479828,134.579086 
	C162.521179,125.870735 161.700043,117.283844 160.573273,108.737259 
	C160.129471,105.371010 161.732834,103.950455 164.417892,102.719215 
	C167.087219,101.495171 169.194794,101.170784 171.541855,103.622482 
	C177.757828,110.115578 184.223358,116.369637 190.581238,122.727158 
	C191.291412,123.437309 191.935074,124.207657 191.902863,125.617218 
	C189.022537,128.140213 186.128372,130.609467 182.592102,126.108940 
	C181.258255,124.411362 179.535889,124.126167 177.736252,125.289391 
	C175.369507,126.819191 171.100281,126.836174 171.447571,130.702576 
	C171.873840,135.448029 169.495071,137.326355 165.866089,139.414490 
	C160.984711,142.223206 156.587814,145.872681 151.974625,149.149521 
	C150.492020,150.202621 149.099152,151.482574 146.572952,151.162689 
	C146.073822,151.014893 145.824188,150.737366 145.824188,150.737366 
M169.023193,114.191422 
	C169.680557,116.349457 168.647675,118.817993 170.174026,120.880821 
	C172.265289,121.099106 173.683884,120.311172 174.525360,118.486732 
	C171.907730,114.436859 171.907730,114.436859 169.023193,114.191422 
z"/>
<path fill="#000000" opacity="1.000000" stroke="none" 
	d="
M100.882095,188.149811 
	C95.869698,184.551605 91.209946,181.068939 86.404518,177.800461 
	C83.680855,175.947922 83.539848,174.164490 85.568649,171.700241 
	C87.570786,169.268387 89.259583,166.581299 91.196228,164.092072 
	C93.622070,160.974075 96.508644,158.298843 100.811401,159.061172 
	C104.980583,159.799850 107.620872,162.398895 107.587151,167.132645 
	C109.202347,166.964874 110.318291,166.789993 111.439659,166.742035 
	C118.782738,166.428070 123.203300,172.608353 120.333527,179.432816 
	C118.255318,184.374847 114.568802,188.324020 111.458374,192.619995 
	C110.346489,194.155685 109.071953,194.135376 107.621017,193.046112 
	C105.495804,191.450607 103.325089,189.915710 100.882095,188.149811 
M112.910828,175.550323 
	C108.456017,172.829727 106.452164,173.906525 103.922905,180.657333 
	C105.695518,181.555161 107.149666,184.231415 109.347557,183.079376 
	C111.786728,181.800888 113.520248,179.323090 112.910828,175.550323 
M99.033813,175.760605 
	C99.554665,175.120148 100.155762,174.528564 100.581360,173.830078 
	C101.866570,171.720840 102.918808,169.186523 100.184196,167.781143 
	C97.244896,166.270569 95.347343,168.850403 94.445297,171.077393 
	C93.036781,174.554794 96.420227,174.888153 99.033813,175.760605 
z"/>
<path fill="#000000" opacity="1.000000" stroke="none" 
	d="
M276.237396,84.726288 
	C280.053040,85.481712 283.570496,85.869057 286.843475,86.977913 
	C294.530060,89.582062 296.963257,99.317635 290.870483,104.646370 
	C287.388123,107.692039 287.826233,110.166397 289.137451,113.619453 
	C289.877472,115.568390 291.162842,117.469398 290.722443,120.013786 
	C286.322144,120.930519 283.162323,120.220497 281.603912,115.201302 
	C280.746796,112.440781 281.146576,107.813858 277.238068,107.669777 
	C272.778320,107.505379 274.566803,112.253174 273.770447,114.752632 
	C272.795837,117.811470 270.907379,117.474579 268.753693,117.199425 
	C266.196625,116.872726 265.531464,115.236748 265.921478,112.898537 
	C267.257996,104.886482 268.609406,96.876587 269.878082,88.853683 
	C270.437256,85.317596 271.928619,83.342049 276.237396,84.726288 
M283.351013,93.030678 
	C281.197296,92.447388 278.602539,90.988106 277.484558,94.103554 
	C276.805054,95.997070 274.830048,98.779488 277.743530,100.266014 
	C279.860779,101.346275 282.789673,101.600258 284.670074,99.453224 
	C286.411102,97.465286 286.247131,95.200714 283.351013,93.030678 
z"/>
<path fill="#000000" opacity="1.000000" stroke="none" 
	d="
M251.766113,83.707794 
	C260.998383,86.857224 265.161987,93.662636 263.695251,102.574486 
	C262.142456,112.009056 256.892792,116.353180 246.711380,116.321793 
	C234.315277,116.283569 235.814117,117.841957 235.689545,105.583839 
	C235.628799,99.605713 235.796432,93.623161 235.629395,87.649078 
	C235.540314,84.463493 236.781845,82.969986 239.930679,83.103416 
	C243.738693,83.264778 247.544708,83.473457 251.766113,83.707794 
M243.735107,108.456932 
	C247.442688,111.037529 250.877869,109.641014 253.525650,107.018105 
	C256.999542,103.576859 256.301575,98.988266 255.012085,94.852982 
	C253.962952,91.488541 250.958252,90.372742 247.492950,90.262344 
	C244.568741,90.169174 243.199371,91.177383 243.320084,94.258507 
	C243.495148,98.726494 243.437012,103.203629 243.735107,108.456932 
z"/>
<path fill="#000000" opacity="1.000000" stroke="none" 
	d="
M146.201996,151.150558 
	C143.446442,156.887039 142.218506,157.585297 137.044174,155.297806 
	C133.731827,153.833435 132.496841,156.269440 130.828857,157.890976 
	C129.026321,159.643295 126.097183,161.155136 128.088425,164.466400 
	C130.915527,169.167633 128.096100,171.357346 124.574272,173.353134 
	C122.230141,172.336380 121.972214,170.151215 121.149788,168.414871 
	C117.659760,161.046585 114.351433,153.591232 110.790840,146.257935 
	C109.501915,143.603317 109.720055,141.636673 111.899139,139.614960 
	C114.075600,137.595688 115.978104,135.887711 119.293419,137.601273 
	C127.866959,142.032578 136.556946,146.238617 145.512299,150.635986 
	C145.824188,150.737366 146.073822,151.014893 146.201996,151.150558 
M122.781235,153.322830 
	C125.730949,155.466309 126.198441,152.808685 127.378143,151.272919 
	C124.220100,148.563095 124.220100,148.563095 119.803932,147.248627 
	C120.751884,149.241516 121.594841,151.013657 122.781235,153.322830 
z"/>
<path fill="#000000" opacity="1.000000" stroke="none" 
	d="
M197.321350,161.062164 
	C198.602295,166.311066 197.304489,172.098145 203.427216,175.274139 
	C200.483597,178.097595 197.679688,180.303391 196.123184,183.241074 
	C194.456970,183.261475 194.136032,182.216675 193.563965,181.429413 
	C189.751038,176.182327 185.567154,175.149261 179.813492,178.127884 
	C175.571564,180.323929 171.462830,183.619324 166.774582,178.958099 
	C168.397903,171.919800 187.643936,155.451630 196.207138,154.065750 
	C196.868057,156.209930 195.484207,158.731796 197.321350,161.062164 
z"/>
<path fill="#000000" opacity="1.000000" stroke="none" 
	d="
M341.695679,138.871048 
	C341.879883,136.198532 341.474152,132.881332 344.344849,132.848785 
	C346.984680,132.818848 349.748535,134.632812 349.355652,138.356796 
	C349.138947,140.410782 350.264313,141.857986 351.687683,143.073318 
	C353.421631,144.553848 355.500519,145.687607 357.492523,143.905197 
	C359.586792,142.031311 357.755219,140.263901 356.633850,138.696518 
	C354.898468,136.270935 352.685181,134.193954 351.483948,131.379776 
	C348.795715,125.082161 352.657898,118.926498 359.467682,118.701706 
	C365.797546,118.492760 372.429321,123.503975 373.886353,129.653931 
	C374.536285,132.397110 374.244873,134.908066 371.636993,136.901749 
	C368.992645,135.725143 366.571594,134.573242 366.578339,131.013046 
	C366.582092,129.013550 365.195923,127.664742 363.529724,126.746590 
	C362.151672,125.987213 360.638885,125.746780 359.344055,126.910202 
	C357.840942,128.260757 358.681458,129.680756 359.539398,130.921143 
	C361.051117,133.106750 362.768219,135.152344 364.243286,137.360779 
	C366.943726,141.403717 367.099609,145.515030 363.827393,149.303665 
	C360.660431,152.970459 356.547089,153.134720 352.423035,151.403809 
	C346.980835,149.119598 342.798035,145.514069 341.695679,138.871048 
z"/>
<path fill="#000000" opacity="1.000000" stroke="none" 
	d="
M339.538574,120.621407 
	C342.900208,124.934250 344.141754,129.161697 340.777161,133.659119 
	C338.057434,137.294525 333.041382,138.201385 327.571259,135.899368 
	C322.499573,133.765030 318.034058,130.871902 317.726013,124.584595 
	C317.634491,122.717163 317.143372,119.943748 319.922485,119.873978 
	C322.093323,119.819473 324.773560,120.790352 325.137604,123.594856 
	C325.563171,126.873100 327.279266,128.749313 330.303741,129.517517 
	C331.769867,129.889908 333.389496,129.918976 334.278381,128.311020 
	C335.033264,126.945496 334.422913,125.669601 333.465698,124.680763 
	C331.848969,123.010605 330.081573,121.487488 328.428772,119.850822 
	C324.412567,115.873741 323.476257,111.174179 325.877441,107.270920 
	C328.198395,103.498116 333.101654,102.028290 338.288147,103.698601 
	C342.896790,105.182800 346.839722,107.596893 348.240997,112.602722 
	C348.852997,114.788979 349.635559,117.894142 347.024200,118.796219 
	C344.352600,119.719093 341.866455,117.913544 341.108887,114.908989 
	C340.515167,112.554108 339.215240,111.023766 336.915344,110.478531 
	C335.459930,110.133492 333.858124,109.974724 332.916992,111.595779 
	C332.060425,113.071159 333.033203,114.169228 333.943298,115.117935 
	C335.668549,116.916389 337.502197,118.610840 339.538574,120.621407 
z"/>
<path fill="#000000" opacity="1.000000" stroke="none" 
	d="
M413.242004,177.765533 
	C412.139252,179.412003 411.319855,181.598434 409.366699,180.390594 
	C407.455261,179.208542 405.665070,177.363068 406.419922,174.609070 
	C407.049988,172.310501 406.675812,170.316544 404.975342,168.634674 
	C403.829712,167.501541 402.421783,166.873657 400.899445,167.649445 
	C399.206268,168.512314 399.429657,169.990479 399.973816,171.545898 
	C400.961670,174.369736 402.033905,177.184937 402.730652,180.085480 
	C404.279205,186.532089 399.833588,191.769241 393.255310,191.459717 
	C385.178375,191.079681 377.716797,179.050293 381.328308,172.095016 
	C382.180267,170.454300 383.061066,167.771027 385.596863,169.151123 
	C387.526001,170.201050 389.568634,172.199020 388.285950,174.892105 
	C386.626251,178.376816 388.314331,180.616409 390.633453,182.719467 
	C391.677399,183.666107 393.007507,183.963364 394.339996,183.211380 
	C395.770844,182.403885 395.841400,180.986786 395.451843,179.695496 
	C394.587494,176.830399 393.459991,174.045670 392.554626,171.191742 
	C391.389404,167.518631 392.134155,164.242493 395.075867,161.673370 
	C398.028137,159.095047 401.512207,159.024231 404.954407,160.299576 
	C411.474060,162.715149 415.244537,170.542099 413.242004,177.765533 
z"/>
<path fill="#000000" opacity="1.000000" stroke="none" 
	d="
M380.993103,160.178864 
	C379.325958,158.496262 377.917786,157.078903 376.541107,155.631577 
	C375.093842,154.110016 373.761749,154.225891 372.255676,155.640717 
	C370.654938,157.144424 370.154968,158.533936 371.910736,160.259171 
	C373.572327,161.891891 375.003387,163.786636 376.787537,165.261719 
	C380.784912,168.566635 379.261017,170.683258 375.133545,172.842484 
	C370.579559,168.300629 366.011658,163.742783 361.441040,159.187637 
	C359.905243,157.657059 360.284912,156.295822 361.703094,154.906433 
	C368.004120,148.733368 374.296356,142.551025 380.550720,136.330811 
	C382.408112,134.483551 383.988495,134.839890 385.658539,136.560501 
	C389.252594,140.263351 392.846863,143.968338 396.533905,147.577591 
	C398.416138,149.420135 398.149170,150.866776 396.366577,152.598679 
	C394.536346,154.376938 393.119171,153.768173 391.750397,152.191330 
	C389.462646,149.555771 387.232849,146.869919 385.495392,144.816025 
	C382.025146,145.284012 381.092072,146.866806 379.882843,148.573547 
	C381.133942,151.508636 383.977081,153.174622 385.921570,155.566803 
	C387.179199,157.113953 388.843323,158.474152 386.735291,160.637253 
	C384.746918,162.677612 383.015961,162.430557 380.993103,160.178864 
z"/>
<path fill="#000000" opacity="1.000000" stroke="none" 
	d="
M296.388855,106.519302 
	C297.919617,101.877007 299.370453,97.625336 300.676117,93.329559 
	C301.480011,90.684532 303.053467,89.965652 305.584991,90.830368 
	C310.467010,92.497971 315.369659,94.105179 320.250793,95.775360 
	C322.153046,96.426254 323.439911,97.328903 322.593018,99.813324 
	C321.739319,102.317673 320.234436,102.811043 317.980133,102.080452 
	C315.763550,101.362083 313.545135,100.645676 311.351440,99.861427 
	C308.976379,99.012352 307.211029,99.213615 306.200470,101.961052 
	C305.120209,104.897842 307.079224,105.365425 309.056610,106.001770 
	C311.114990,106.664177 313.152100,107.392532 315.206024,108.069138 
	C317.431641,108.802284 317.818604,110.323990 317.197754,112.392609 
	C316.508514,114.689178 315.085938,114.971313 312.957306,114.373749 
	C309.805237,113.488899 306.854706,111.734657 303.515778,111.869003 
	C302.053894,113.226166 301.978210,114.904373 301.669830,116.809349 
	C304.298737,119.221123 307.927368,119.483490 311.113739,120.670204 
	C313.457092,121.542953 314.928833,122.579811 314.113739,125.363159 
	C313.183044,128.541336 311.051605,127.711815 308.939026,127.011742 
	C304.673218,125.598114 300.455048,124.018867 296.136078,122.794106 
	C292.456512,121.750664 291.173798,120.075218 292.942444,116.299294 
	C294.345276,113.304337 295.167542,110.037445 296.388855,106.519302 
z"/>
<path fill="#000000" opacity="1.000000" stroke="none" 
	d="
M199.764465,101.078568 
	C199.048950,98.625633 198.428116,96.560226 197.778137,94.504028 
	C196.926804,91.810951 197.545700,90.265060 200.584808,89.416130 
	C203.536270,88.591682 204.512253,89.851799 205.204193,92.229599 
	C207.104187,98.758827 209.254150,105.224548 210.891525,111.818130 
	C212.267303,117.358223 208.152206,122.640411 201.884766,124.075218 
	C195.659729,125.500328 191.642853,123.310112 190.077911,117.453064 
	C192.581757,115.994240 194.942841,113.883858 197.970871,116.734749 
	C199.228699,117.919022 200.692245,117.835495 202.073273,116.857048 
	C203.472473,115.865730 203.798218,114.510643 203.308151,112.902695 
	C202.147308,109.093956 200.999344,105.281288 199.764465,101.078568 
z"/>
<path fill="#000000" opacity="1.000000" stroke="none" 
	d="
M218.829712,119.236786 
	C216.219849,119.056168 215.962234,117.378456 215.637726,115.697212 
	C214.064957,107.548813 212.411667,99.415550 210.896637,91.256554 
	C209.858047,85.663399 214.100098,86.780876 217.938980,86.156464 
	C219.760010,96.056030 221.600708,105.772293 223.307816,115.511978 
	C223.850601,118.608788 221.480774,118.960716 218.829712,119.236786 
z"/>
<path fill="#000000" opacity="1.000000" stroke="none" 
	d="
M219.456329,413.766113 
	C216.653564,417.609467 208.964752,418.448975 206.123184,415.564758 
	C205.895615,415.333801 205.692062,415.056793 205.552658,414.765198 
	C204.929367,413.461456 208.313843,397.959412 209.541885,397.599976 
	C212.728271,396.667297 215.765717,397.729248 218.462677,399.360260 
	C220.406128,400.535614 221.990784,402.793610 220.577042,404.820709 
	C218.566742,407.703156 219.815933,410.555237 219.456329,413.766113 
M212.725830,414.233765 
	C214.614014,414.575256 216.247787,414.049866 216.190521,411.960052 
	C216.130951,409.787048 214.063049,409.317749 212.325256,408.801514 
	C210.960556,408.396118 210.042450,409.061218 209.623672,410.252991 
	C208.842743,412.475372 209.887390,413.663971 212.725830,414.233765 
M212.279419,405.367584 
	C214.167847,405.766907 216.579300,406.628479 217.123245,403.989349 
	C217.589722,401.726196 215.179947,401.027283 213.471573,401.058716 
	C210.726974,401.109222 211.193390,403.112305 212.279419,405.367584 
z"/>
<path fill="#000000" opacity="1.000000" stroke="none" 
	d="
M269.384399,408.886749 
	C270.613129,413.921326 269.643982,418.049438 265.467133,420.535583 
	C262.318115,422.409973 258.763458,422.229889 255.779938,419.595428 
	C252.623383,416.808136 251.456390,410.726013 253.385239,406.708771 
	C254.954437,403.440552 257.624146,401.658600 261.302643,401.751495 
	C265.713257,401.862915 268.277161,404.307281 269.384399,408.886749 
M256.303406,413.880066 
	C257.059143,416.778076 258.775818,418.717926 261.918274,418.216309 
	C264.679626,417.775482 266.105927,415.553650 266.470886,412.942444 
	C266.887115,409.964233 265.972015,407.215637 263.208008,405.737305 
	C259.114227,403.547668 256.245270,406.624817 256.303406,413.880066 
z"/>
<path fill="#000000" opacity="1.000000" stroke="none" 
	d="
M287.317566,415.495209 
	C288.801453,416.807922 288.447998,417.812012 286.990662,418.166931 
	C284.738281,418.715454 282.425629,419.032715 280.127167,419.370911 
	C278.169861,419.658905 277.014191,418.915192 276.663055,416.800598 
	C275.901550,412.214966 274.983765,407.655243 274.125275,403.085785 
	C273.920654,401.996735 274.059113,401.057159 275.321655,400.781006 
	C276.577026,400.506439 277.184204,401.302521 277.415375,402.364746 
	C277.908875,404.632141 278.307220,406.920105 278.769135,409.194641 
	C280.151642,416.002258 280.156281,416.001312 287.317566,415.495209 
z"/>
<path fill="#000000" opacity="1.000000" stroke="none" 
	d="
M239.299759,408.127502 
	C239.279495,409.596619 239.378006,410.613678 239.227982,411.592621 
	C238.505783,416.305176 239.465469,419.553436 245.250534,418.869781 
	C245.539230,418.835632 245.901978,419.033447 246.156998,419.222198 
	C246.401413,419.403107 246.550354,419.713043 247.250687,420.641937 
	C243.668396,422.392273 240.086380,421.580536 236.891586,420.927460 
	C234.213089,420.379852 235.722412,417.561279 235.681076,415.727753 
	C235.613571,412.731873 235.650360,409.726776 235.816132,406.735168 
	C235.910568,405.030762 235.560715,402.957764 238.172775,402.172424 
	C239.903610,403.715149 239.093170,405.814606 239.299759,408.127502 
z"/>
<path fill="#000000" opacity="1.000000" stroke="none" 
	d="
M291.527283,404.385864 
	C290.999664,401.746155 289.274506,399.512878 291.139648,397.091583 
	C294.556091,399.439087 297.820374,411.165955 296.222290,416.404205 
	C292.588898,413.014313 293.203369,408.405975 291.527283,404.385864 
z"/>
<path fill="#000000" opacity="1.000000" stroke="none" 
	d="
M228.788635,401.092285 
	C229.545624,401.317139 230.241669,401.592987 230.252151,401.892853 
	C230.464828,407.971344 229.458008,413.853333 227.716431,419.930359 
	C224.732178,417.442780 225.414215,406.899536 228.788635,401.092285 
z"/>
<path fill="#000000" opacity="1.000000" stroke="none" 
	d="
M212.961700,272.947327 
	C214.057312,275.042542 218.291351,275.490936 216.317703,278.382324 
	C214.845123,280.539612 211.949402,279.235260 209.853806,278.273865 
	C202.416824,274.862000 194.598419,272.563171 186.851532,270.025146 
	C180.887650,268.071320 176.379715,262.764587 169.677841,262.397827 
	C167.488693,262.278015 165.439133,261.783630 163.804733,260.065460 
	C171.315598,256.075043 196.103226,262.242188 211.712341,271.912720 
	C212.290039,272.271332 212.538589,272.512451 212.961700,272.947327 
z"/>
<path fill="#000000" opacity="1.000000" stroke="none" 
	d="
M203.110382,199.387299 
	C204.688385,199.135971 205.893158,199.265366 206.144424,200.710754 
	C206.354752,201.920639 205.259155,202.405594 204.330093,202.692139 
	C202.231461,203.339447 200.115189,204.321747 197.580490,203.293350 
	C198.211914,200.002701 200.566971,199.839645 203.110382,199.387299 
z"/>
<path fill="#000000" opacity="1.000000" stroke="none" 
	d="
M188.010757,343.007202 
	C187.742950,341.434052 187.019028,339.223755 189.481552,339.246216 
	C192.728699,339.275848 194.770935,341.245911 195.008163,344.695831 
	C192.207855,346.359161 190.630219,343.943970 188.305649,343.083527 
	C187.982697,342.975555 188.000366,342.997742 188.010757,343.007202 
z"/>
<path fill="#000000" opacity="1.000000" stroke="none" 
	d="
M205.678421,354.024170 
	C208.098175,355.480133 210.391159,356.650421 209.942459,359.993103 
	C206.579636,361.140594 204.673676,359.093170 203.290207,356.674469 
	C202.312286,354.964813 203.341492,353.895386 205.678421,354.024170 
z"/>
<path fill="#000000" opacity="1.000000" stroke="none" 
	d="
M196.278900,347.128174 
	C199.958679,346.629425 201.984756,347.933228 202.162201,351.965546 
	C198.894348,351.599304 196.714462,350.492462 196.278900,347.128174 
z"/>
<path fill="#000000" opacity="1.000000" stroke="none" 
	d="
M220.663651,302.918030 
	C220.022171,304.673584 219.128113,305.589661 217.637360,304.614655 
	C216.563522,303.912323 216.595352,302.661652 216.926880,301.515137 
	C217.209671,300.537262 217.753815,299.649963 218.903351,299.713165 
	C220.709137,299.812347 220.727753,301.218018 220.663651,302.918030 
z"/>
<path fill="#000000" opacity="1.000000" stroke="none" 
	d="
M201.809860,316.049377 
	C202.132309,314.179321 202.407211,312.675873 204.902267,312.243774 
	C206.534241,315.441681 207.244995,319.315247 210.664490,322.595917 
	C204.915894,323.084930 202.612396,320.748962 201.809860,316.049377 
z"/>
</svg>